<mxfile host="65bd71144e">
    <diagram id="PuymdfLuQ33xg9jtd633" name="Страница 1">
        <mxGraphModel dx="1353" dy="319" grid="1" gridSize="10" guides="1" tooltips="1" connect="1" arrows="1" fold="1" page="1" pageScale="1" pageWidth="827" pageHeight="1169" math="0" shadow="0">
            <root>
                <mxCell id="0"/>
                <mxCell id="1" parent="0"/>
                <mxCell id="2" value="" style="shape=image;verticalLabelPosition=bottom;labelBackgroundColor=default;verticalAlign=top;aspect=fixed;imageAspect=0;image=data:image/png,iVBORw0KGgoAAAANSUhEUgAAAq8AAACnCAYAAAA/rbXZAAAAAXNSR0IArs4c6QAAAARnQU1BAACxjwv8YQUAAAAJcEhZcwAAEnQAABJ0Ad5mH3gAADSMSURBVHhe7d0JfBTl/T/wT1WCQjYEciBB/hAiiVxBkFM5DGgJHilCQIsIooKtWkSrLWLL5YWVKmi1ShTk0CoQxFAqWAE5RI6IJYCYQDh+SBCSQEgCKlb7f56ZZ3dnZ2ePHBsy5PN+vQYys7Ozs/dnn/k+z/witmnz/4GIiIiIyAYuUv8TEREREdV6DK9EREREZBsMr0RERERkGwyvRERERGQbDK9EREREZBsMr0RERERkGwyvRERERGQbDK9EREREZBsMr0RERERkGwyvRERERGQbDK9EREREZBsMr0RERERkGwyvRERERGQbDK9EREREZBsMr0RERERkGwyvRERERGQbDK9EREREZBsMr0RERERkGwyvRERERGQbv4ht2vx/6m/84he/wCWXXIKLL74YF110kTYREREREdUWrnRar149XHbZZahfv74WYBlciYiIiKi2uUi2tsrAKicGViIiIiKqzS4KCwvTWl2JiIiIiGq7ixhciYiIiMguWCdARERERLbB8EpEREREtsHwSkRERES2wfBKRERERLbB8EpEREREtsHwSkRERES2wfBKRERERLbB8EpEREREtsHwSkRERES2wfBKRERERLbxi9YJSf9Tf9tcGJJuSEfvpAjULyvA9k+ysL1AXUREREREF4Qgw6sDybfdj3vvSEH3hCgRE6VzKD6Ug43L3sasd7NRpi07jxokYuS0GXgkJQ4o2YW3Jj+K1zZXZK/i0P+RSZhwYzwuvVgt8uWHImx/Zyamvb9LPApEREREVFOCKhtISn8Mkx9JR29XcJXCENWqKwY/NAmTR3U0LLevCEc0YmKjEBUVYIqLRpSjvrpWZYQhecyL+HjrFnzxwQwMTlCLiYiIiMivwOE19loMuvlaxDcQf58rwPalL2P8mIl4aelmHCw5h3Mlh/B17qELoAWyCDs3ZmHhgnex8B19Wr7VWXdQhoPrlrqWL5y3BKv+c7AK9zkacU2j4AjUwktEREREHgKXDbQbgdkzx6N3rIhw/3kbjz/2OraXqMssODoOxK/6JiFaBLNzZbnY9MFq5Gjrx+G69F+iU/Q5fL12NY7GD8SApGjg7CFsz8rC9hMOJN80FL2vjEDYT6U4tHUFlmcXG7YZj/oF2Vi+ugBX3fRLdIuLAH4qQs6qpVibL2Kkv7KBBq3Qf3AqkqPDxHU8t+2bA/0f/xueuT0JYSjG9tenYPyb2YbA6kDSwFu1+xAmlhblrsWHq/M8yieaX5uOX3WN01qly8S+rxKB/6i8QO7r0y/hkb5RwJFP8dRjE7E8X16gC0u4HsNTk/XH0PX4qAuJiIiI6rDA4TUxHS/MfAz9RSaUoXDxi8/g+X8d0i8zCEsciAceHIPB17USsc7tXMFmLHxpJl7b0wp/nDkDw9uJqFciIl6kw1VqcO7QZqwtEgFTBT3NuQJsWjAT01/fjOgRM/DKw9cjSkTDo8dFKIwz3ELZIaydJ9ZbWopfeYXXH5B823g8MjYNybGGwoafypC7eh5eevFdP0Hcd3iN6joCj46/E6ntRPg0KP5PFl6bPRPLjyRh5ONP4r6B5sdCBNgNhYhPHYSOkWqhSxlyxP1999xA/G7EtWguW7qdxH3c9MHr+MvLn+rhl4iIiKiOClw28E0uduaqw+eRHTF8+gJ8vDQDL0wcgetaOQNhHPoPG4HbVXAtKziE3EPFWtALi7sWw+9Mx3XR2oqaMBlcywpw0LlOq2uRKoPruWKxrABlP8mFceidlo7BXQ3x72KHFlzPFYvt56v1HCL03jECwzs31NcxiOp7Dx75TboeXM8WI3fXLrFfIjiL7STdNAYPjLpWBOIKajUQ940fo4KrCNN5u5Dzlb4vUVen4YH7xOMw9E4Mv0E9FkdykbMrF0fFzYZFxyEy7HsUnyjW911zDmUlxdqyksiuSL9NBdcScR/F/h48IR4hRxyaR0cj3BhoiYiIiOqgwOH17C4szngbi//jPMwuO2p1RP/08Xh5wXuYPX4g4hsUYG1WJt7/5FMsf30i7rzjDoy4bwoWZusH0R0tWiG+6SXa35ribLz15FikG9bBT8XYJK47Iv0hzMhSNbRRSbgqsZl2sdPRDa9j/O1i+7eL9T7I1Q/Tx3ZEty4tYbgF4UoMuOmXSJYZ8+whLH/pEYwYMxYjxovb3CWv5cBVPa9FJ9miHLQwdLtBljtosRQ57z+D344YizGjHsKslfo+R7VPQfdOrREj61nF7a7JeAJjxoxGWkpPXHPtEDzy7PP4/YRn8FGudg+BI5sx6/6b8cub7sDLXznQTGuRFdvOehn3i/1Nv6kvrunaF+mTlyL3rHYNIiIiojorqNEGzuVl4fn77sCY6W9j1Va9FVHTIA6977gfDwzuCOzKwqyJE/HUm5/i+3ZpuPfO69H8EhXQwhyIdhiaDc+Wo+C4CMMlRSg4obe+4qxsiS0Qfxeh+HiRHkpFAHQ0iEA9+bemDMWH8vC1dqi/ALu+zEWRFugciPt/cWgk/3SK+X9IilfNvWI/B/zmJXy8eiU+nvckBiforblhUXGIizKUEwQUh/grWyFK62glwu/AxzFPbnN1BiakqJIHRwQa/liq73+DVhg8MQNLX5+GCeldA7bylhYXoFzdn+Q7p+GdBX/DMw+mIdmrxICIiIiobgoqvOpka+DrePLB0Ui7bSyez1KtnmFxSOrcEfHNumLkk3/D0k824OPXJ+GBMelIvTpQXBOx9b/qz0r4/rty1+H3S8Pq4WItVCqX1BfL1N8iVjoMQ105c7SsvS3/Qf87KA0cCLvMPURWWKRhmw51Y2WlOLh9OZZvUK3HDaIQ33Ug7pr4N2QumIThHX2H5eKtWViQlY2j8oqyRKJdV6SOmYQ33s3AH29qpa9EREREVIdVILwalOzCR6vXqRZQERwvi8NNDz+GB2/rivjIMJQV5CLnP7uQe8TZRBsal4aHQx9u9RxKy8/iJ1cdqfBDGUq/0/88d2g1nkrviWu6ek69bp+C5XmqdTgYZ0XYPV2mWopzsXjiEK9tXnPDaDz/3j/x2qN3IP3Rl7H4k2wcLNZvw9EuFcPTUtBcm7Nw9hBWvfQQ0u+eiNeWfoocWZ8rhMV2xKBhabguVpslIiIiqrMChldHj7vxwrvLkLVgBu7t6ywQdSC5c1e01o6+i+D4/WW4KrmVdti8eOvreHzUaIy57xksz63+8Fr/4jD98DxaoVvPZDTXZspw9HABTmvLlZP/h9yDsgxBNg53RLceifpyqUVXDB81AqkdDZ3BglKAA/tVR7EG8ejUo6M7iMrhuG6/G8NT9MdBOrrhXTw/8SGM+OPr2KSVDIchIioK4ZdpF/t0Lu9TvDVjongMn8Bb/9Efw/qOKMSwwxYRERHVcQHCaxS69U1Bt8Q4NG93PR548T18mvUelv5rGWbe11Wv/SzOwdpt+1GqDr9HxV+Hwb+ZhBfefBEP3FCh3lBBcCBp2ON4Y14G5i14ERNu0oPiuUPZ+Cz7kKkC4f+w/ZPNeutwWBxSH34JS+X15s1H1ry/4Y/jx2Pio/frQ4AF7RxyNqzGRjmurLjlpNuexN/fFdt8MwPvvpeBFx7/Df448Uk8N3sRPs3egs+z5mP25EmY8pt0dNIqKETIzj+EgsIyFJWpYN+0I0Y+9R4+FuvOfFbs4+Yt+GLdMsx7YRL+PPF+pLbTA3bZ0Vwc4FivREREVMcFCK/FWDv/Fby5Ohf6ke8wOOJaIT5WjdFanIvlc9/AwsXr8dHmXXoNbGxHpKanof/VcXCIgKYfMK9GYVGI79gRye3E9sXsuRPZeD9jHhZ//aN+ucHRde/gtQWrkasFWHW9jkloLjtAlR3C9s82Y6fzJFrBOrQaczPexaZDeoBtnii2eXVHJMmxZ+X4sdm7cfDkdzgnLg6LS0LvtDRtGDCHeCSKs1fg/VXZKDubi+1bd+m1rXK/ElshKi4eVzaPkPlWZPQ4JKekYfANHbWW5XNHNmN55qfI4WgDREREVMcFPkmBIs9yNTz1WiQnxCFCJKwDuzZjVdZSbD+iVpCttOl3YnCfRMTVP4cCcfnyVYfQPOVatEIBPlu/GWGd0tCtRRjOidC7JkuGyjDEp6RjUMdohJ0V66zWtxfVVQS3HnKcVP1sWHsTH9dPUnCxCIdZK7CzQSLiI0UY/Goz/vXBUnym7YNDu/3Udk20YLr2g3fxmTqXghxHdnja9egmAm/9H8pxcG821q407rs11xmyrM7KFZmI1LRU9LlG3d/8HGxf515H3ofbB4rHq0WUNpLC11tXY8mKzTjqCqD6GcV+ldJVBNRifL1xBRYuzUaxLGlI+yWu6xiP+j8V46h8nJfxDFtEREREUtDh9XxKcp5hS4TXnAVTMP7lzXorLxERERHVKZUbbYCIiIiI6Dy4uHGT6Knq71rrHC7GDyXHsH9XNr7c+gW+dJ0lgYiIiIjqEluUDRARERERSSwbICIiIiLbYHglIiIiIttgeCUiIiIi22B4JSIiIiLbYHglIiIiIttgeCUiIiIi22B4JSIiIiLbYHglIiIiIttgeCUiIiIi22B4JSIiIiLbYHglIiIiItv4RVR09P/U37bTKCICp0tL1RwRERERXejY8kpEREREtsHwSkRERES2wfBKRERERLbB8EpEREREtmH7Dls//fyzmiMiIiKiCx1bXomIiIjINhheiYiIiMg2GF6JarnRM5cic+YoNUe10yjMXLoUM+9Ws7We3faXLmR9Js5H5txJ6KPmiQJhzStRFUQNfQm/6tRIzUn52DT5GeSpuaqSH+oTup5A1itZOLB+Izaq5bXFlGU7MDhqO17sdz8WqmU17a431uPRbg41Z3JoOToPma5mlKmZ+DItHmXbX0Lf+z33WtvWVV9X8P70wZNzH0aXk1mYteIgNornqdbr1wd94tMw4ZZY7HhlNJ5Zr5aHmP56bqjmdGeyZ2PUDBs8ZrXR5ffhmZE9EKFmLZ3eilcy3qy2z6QK6TcJC37XBR7PeOkOzLrnWY/Psj79RqHv6DTtPTT0sQVqKZFvNRJemzRujA4dOmD37t04eeqUWlp1QYXXO9/Aht93Q1FWFwyZqpaFmvblGI1tf+2H+99Ry+qstuj1h8fR9tQyzM34p1p2ger7JO65AdUXXu9+AZk1HC4qqibCa6Db0MNrEZZ3GYppapk/rrBrEWwrE15ly3haE+8vZC9N47BiZBuEowCL/7oPf1eLNa7LnEqxddGXmHhczSq/Te+H4S3VjLDv3+sxLkfNaCIx5/ed0EbNuVncphD0vlcTLbwm5vq9PfN9dPK4r16Pl1K6D09nFGCNmq12QT1Pl2LG2B7o4UqU1s9lKCT2n4nfdSnCP2fOwGq1rDbx+/yroHvin+l47G21jMiHkJcNtLnySi24ElFF9MGTfeNFwFpTa4OrXS28vx86d+ni3SJbGeILd0Ar4OCGQOFPBJo0ESmtTmetAtExEc5S/qpPT38J9BjZGTOaqnW0QCRCXWMRztQ6KYv2odmN/TAnWa1iIIOec1v65B1cpfmPZeFgRBeMnVjLDtge3mnaf3NIl2Qo9FwnpQaCq//nSf54EMH1lGH//11uWocsrX8WGdlnEH/LCxitFhH5ErLwetFFF6FD+/Zo1qwZcnNzcfbsWXUJEQV0dxq6RJzBjhU8hFabjb61CxqW7sCHAVqKBvRvix4RBfjX1nK1xG1A+6YIL92H9w3hbM3ag9iHCDRxBp6mTdA+QoS1LEM4Oy62dxhokxipFlTGAnwoAkPDxD6sNwwgqOcpOQZtZCv30hK1QMg5gq2lEWjf/lK1gHzZOGMNDiIeHVmLTQGErGygeVwcGjRogH3796NevXrolJyMAwcO1FjZgHaosZWasXDQWEagSguMVXMelzupWjkPZc7DmXfhjfWPoLuP0juxYoXLCLzrKYXyLfjwL3NQrGZ16tC86RjasU/uwUcb1IykHdZOUDOKxfYSx85F7xZqRvJYx3RbR1Q5gGHb2u3C4raMnNeriIRxGDa6p8fz5HUfBc/9z8em+YXoNDoGO52H87V9jcbe+Y/g83xtJY12vcaG+2pxe8Bpr+u5BCobsNyedY2s38O52us1GmvkYXKP1+RBw6Fz0+vReYjcsL77NW7x2nW9ro1M64l1ln99FQa7DrOry4tNh+N9le5YvO9c98HyMgPD/gVTNuAqFTAIVPPa2vgZYlU7q3V6SkNswJpN/VA+5GFvEW3W3QjPQ/jJclm456FlrZWvKfY4l2nrmK4nDOjfGX/qXG5Ybrgtr5ZKH7TDtUnIrYHylKDLBrATKcYAaGZ+fGpCEM+T9nwkHPcqXdDuk2w1D2XLsOC7bOBmPPrYYBELdaU7/oon136t1pffMaeRvegxzIdeQ1v88Vi8aHj9WG7Xot72oOl6ZsE8/9pnH1j7Sv6FrOX1aEGBFlzPl2lDuuiHBv+6XcRG/Ytam1eTObhCfJG5Ls8Sv/3S1uONO9U6kquO1XM7nV1f8Atxfz+1TFxfD6uG9bpUvP61OPMRzJ18j2FahmPhPfGrsbeoNSRDTanHulbBVQY2z3XmWgZXGaic67yAvTDe5l58/hf9sg93ngYaxyFKhrKkna5tare74Rn39WVjkwyr6nJtqmRwxc4X3Nv4JB/NbngJvQwZ2Wv/teBqDoxByp+DJc7tqGnTkUZoO/pJJKpVgqb2v1yEbeP25loG3T64oglwJs9/B604EbS+TN6pXl8vYVtZPAYvm6wudb8eX9wu3gFRzXGXfK271jcFV4gwqJZr20I3PLr+DXGpk8V666Ix2FdHqUDk+0kFWuf+6JMKoO/cj75q2fJDYl6GVeN6rvddcFylAtq0XERk/3qL4NopR60vP0NaDcYyY/CW+l2BWJxB7uf+niUZXDqhzeGdvsNkzj4sPhzhPrSsDk+HHz5oCmbhaGk69LymyLslt8LWf4MTaIikXmx79SvY5ymiodfnQ95Ji3KRGrUSL84ci9+J6Z+HxS5GiQ/N5IkYjTe1Zb+bKYLrt2rVYKjgChGC9euL6eN8xP9yJkZfrtappANFZ4BWHVk6QH7V+aGy7up7FRziizHD2AIzdbkIAg607Wv46m4WLb5Av8am89oB65/IPyL+k4FRXyAkIDIcOJbrPwxGxYj9L9+LPKsWQ5dbkNBCtmYaA5UIq1vElVp08hHYYtC9P7A2xJ2xoq5uC0f5FqzN3KuWCBuWiWDcCFeIyzQiIHYy778IoGtlyK4mebnyAYwWgV2fD1rzGBGg85FvaiW2Fo/GEcCJb/2Fonh0j1ljaA0UYXWdiGStOmGKWuIpGrcNBTLMrYd39kZbh/ihNccYBsW25ojA5rgKvZ0/4KYORnfzelOH6sGywkQQTpH1vMu9j25UmgjuO3bgS4/J9AM0WI5uiBHB1bVvIkivEfczPtn5w0CJbywi3wl846+1MrkNhrc0HUa28Pel65Gy6Djaj+yHdVpLnpj3OPRcqB2e7tHHWCIQiTk3xqm/PbW5UWzn9+7Jqi7W7SBOiWzVMNp0VOl8atnJY//XpVuVRsggaVjn96GvKw30PK3ZcxzliMNN/Q0lAiLkTujsdzyA86AjHk3apbW+VkZiu6sQcXor5huvn7Mc2acbaZdVxcZvT4h/Y3FFP32eyEodD693ofdVDqD4qKkVZyEKisV3WIz7w3zhsSLtS+3RHZk+wkHNKD5pDmL5KCkHmt0wF8OGqhBnobhQ7L9stZ3up9Wwbyc0w2mUHFXzTkcLUeYrsIVHo2StuYyhurVFYkIj4FSB6Xb2oviUeFqa6DumBdygA2IlaY9FJWjXS0Dv6Z4txZUngmSmKYjuK9KepzirwOaIRmGmRWtlm2jxmBWhwPyj7J2jYqkDMarb+pRk8V6oth9v8YgRb7uywkDtnxUhyw2cLavOqeJHOzTix+wHplB9oFC1Xqv54OjhsvzLI5adpdz0zljrRjbEv1wdfMS8R2ArwbhF+1DuEepi8OW/C9TlTmI9Z0chV4ehAi3M+g6wG/HNSfVnLaAFRI/7sBP75P02Ph7HC3CrxzpWnaeqWxDPk9wv8XiHd+7hfp7SgH99eb5bXk1aAnuWrFQzFXWV+AwTn8clx0xHjb7GtyLHa626VXHwFM6oP4l8qfMtr5pWg00tNhb1slOHii9DdWjWtV4lW3aCdgsGTZ+LewyTVw2s8zD+J/lwdHrcva5HaYGgHcaXh/BlgHJuzypIycPizsvV5PewexGK/bbmVqMWQzz3S0wetbkhIMsQPG6ziiUIetmBe3uD+qrLQ84ioAraEQU/optVLK5VRNExryh9QRnQPx5tSvdh1trv1RJrv03vgR6QowioutWcfdpIAjKorjC24HkFtn3Iiw4HSs9YlJ4YaB2G/HXs0stUaq8SvC/DX8sY/FYtseLsPBWqjlFBP09yufF5yhA/MJpEiB/fZ0Na71ohp4sCls4E1HIwXnksw2O6xWKIswrTjmgQ+cfwKsnOGF6tNmLy6qBhqGsV0/JDDnT/fYgCrKyRnD4E4cYaTzFpdaZWXDWmYpq/BWUy6JkDrKFeVU56kDIHWNkhyb2Oe/LRSakmmetmnVNIShZkLbHqwGW8LfnYqjUqIy/DvS35XMoWc+8Aqx/Gjb089DWI2hEFP0IZMEMZjGuE1kLk6/DmpbgxQQSWiDb4k6ulVEzaYf44DBd/64HnUrRsDJTnn/QMNiKoypEEwpv4D2KJ1RiKzhRVZ0v4haYqz5O67kn/P2Js5/Byd72rcap0i65RgHIcqvPqeHjVywMqfjhQN22I7PjhPrRarVSN5E5jjWewnHWeHrWx3vIyluEYGiGyuVqgHdo2zNcaenlAoPujlUZ4lTeokoOA9HpfN1VLvCV0JRHFmXO0zmzhMeZyD/0wbkWHL9Lqt320sPrkq9TgzuZiaRkK9+mz2mFzRzRa67PKZHTyM6KHk75fRgehbc5QllO7+Sgv8tvR6XtMzDC0vjkn7TC/PGHAetxqaJH1Dj964PEv2FB0qdbw53O9fn2QFBG449n5pIX0QC3MTRugmfjvWFHoQmJlnye5+6Hcr9BSZQIuenkAIptVvONqEEZ3kPXwuzBfzRNZufDDq1a7Z9HZQpmWKTumdMNtlek4MrUT4g1f8C5aIPDs8GVNP7945lJfgzJ7BjHLobMs+aoRNTHXuIrQu/MI0KznOL8hsWJU8PTZ4Ss4eWu3oCy8J7r7O8y+YacWxtv2d7Y4y9bTceJ+mZqMVUh3dfTSyjMGAEe8W7U9gqUaMaBSZQNWEvrgChGQywu9f6DM330QiEhCX5+dFhzoPs4wGsCdb2BsNwfKti8P6ixTLu9swt4y07bEX2+M6waHocZ14YavxWMWjwFvONeajGU7xGN2yNgOrX4MGjqNaUNPxZgPUS7Epq/F9ax68FvQg7Oh81ioic+Dsa77Ke/DfXpnNXONMRZg16GK/8jw9D3+nS8PiXfyqEnVx4UtxdaNvjt6OQ9jBy5LkGfcKsC/fKzXp1cSGpbmYoOfli45fFGm+KyaeT7G39Q6vYmP1a3+hpnSTwJhHofVSQ7RJPd/QaVPxlDZ50nWyfobbSLQd0AN+/aY9p0Rn3SzPi+C6+ixv0dUiedn6OqNW1HaqAdu8dsRsDJGoaM86cduDpNF/oV0nNeEBOvC7R//+1/k5OTgzJmqlWUHdXpYyWJ8Vo8xHi0ul4xjvVqNE6l1mvExdqvV+l5jx7rO+3wQWemPe/3SNIfVsp0vYEnhENzTs9Aw7qoMXkO0FgcPpnFUrYOv1Zil1mPGusd69XF7Gl/n9be4juV4tQFYjVMreIz16hEw9fuXd7W870We++axLbXfcpnxsTWHVW2fC9BdBN0Sq7FeLfbPtW/B7LsH9/nyvcY71IZ3uwp7s75G2zT3WKie45bKcOke19GTcTxYSQ2DZXy5GsZRdfF4n6htyGUpRYZ1Pbel7xO0ZTHrPF//1u8p875JFvtnWE/fTsXHeXVzv4+19WLWYDkGG+refb/PK3xKSx/jterLjSMHmE7n6hyWSc1q5FmoTKMY6OO+Rqg5xWI9t2DGqlWvRbHZg1U8dWfAcT6t7qfFqW2tTiFb/uVWj9ZsI23sUPF8ngk4Jm8AgZ4nr8v971eg74CK8jnOq8WYrC6nt+KVjDfdn40e6xrHf43GBuN2kyfilV96f6b5G+s10POvXd71RLU8FnRhC1l4rQlBh1eq0/TgbgqvdnD3C8i8JRY7zIPHO8NrBU96QaHh94QStVxw++7nh1QFBTNIfSjU2ueooj9+bM7v81/HHguqGnbYIqqt3n4cs7KBLr/jub5rs/mPzcYOdMGEmaPUEpsQP47SWp3Bjvn+A93omdUTXM8XGZhq54+LUZjJsKaIH0iju6DhoSw+FhQUhleiWmzjjNHIOhSPtLmTqlBXSaG1Ec/ck4WDrdKqUFNZw2Qr1y3xOPhP/6eElS2WA4pmV29wjRBBX6vz1KdQPmZaS1/0GgytjcF16QCceuUCD67ydWZ4rid0tR4ES/uBJH4CzuIpYSlILBug80Y/laua8cN3XWhwbFs24AvLBoiIqA5jeCUiIiIi27B9eD1dWqrmiIiIiOhCx5pXIiIiIrINhlciIiIisg2GV6Jabtyrq7D61bFqjmqnsXh11Sq8Ok7N1np221+iII17FatXvQq+tC9srHklqoKYEXPw666Rak7Kw5pH/4Q9aq6qUqYuxcSex5H5wlLsW7MO69Ty2uLZVXkYFv05ZnQdjbfUspp274Js8RhZnjsIOLAEbVKfVDPKcx9h39AElG6ZgWtGzVULddq22u2p4P1JwVPv/xHdizIxY9l+rBPPU603IAUpCemYOKQptr2Qjj/7Pu9qtdJfz57nzyrf8jyGTrXBY2ZzbQf9HX/oYfysMshfjDELP1AzgdyGJ6cOx5VqTjq99WlM+Ki6PvV8kT+4hnrcrjw7Ymbqg5ij5qQU8dpuM+SPGBq9DTNun1zrPjOpeoQsvDZs2BDJycmod8klaokuPz8fRwsK1FzVBBVex8zHF0/0QmFmIlKfUMtCTftyjMHnz3XFqHlqWZ3VAddPm4zkk+/h5dnL1LIL1ICnMf5mVF94lS0INRwuKqomwmug29DDayGWJA7CJLXMH1fYtQi2lQmvsmXc1xflw3fdjJGt1YxB7oqVGLlDzUhxLbF2bAf3qYhxCp9lbMYE00eleXte20EUFk3piSQ153YYi6btxmw15+Rv30NBC69tvwp4e16P24Et6LbQdDLpLh2w/VbDOWKt1gmJBpj1cAquw278efZhrFJLLbmeV+vH3yl10LV4qnvjkN4HPbwWYtnUyVihllVde9w/4U9om1sT4dVE+3yEV3jV6UH3cv4wumCFrGzgzJkz+Pzzz7Fh40bXtHv3biQkJKBJY/EmJSI/UvDUgATxa291rQ2udvXWqK5ok5jo3SJbGQOmY6B4mvav8RPGZCCZttJjsgquBSKIOi//8zbgurHXYpbrNPkyMIlA10QEJud2MnYj7tabsaiLWsVAhlrntvTJOjjNeTAT+xt1x0NTU9SS808Lrsb7OW0Lclv3xPa7otQaetjbfmuECPjOddbhsyae64SEfK6miODqowHTk3jOhnUASk6peR/ENv/QHSgrUfNUDTLw4LJ8hPd8UHyOqkV0QanRmteS06dx8uRJREWF+AOGyO7GpaN7o3JsW5ahFlBtNG5Id4Sf3oal3k0/QUvt1ByOkt1YZAi0qz7KRS4aI/pytSAuBsmRp/DZEkNLX8FhfHgASGpflc/TDCzdUo7wtini51JtEIVurUX43mhs0SzGom0iADYJR6o23wCpiY1Rtu0/hpbps5ggroPWzfCwWlLtZEuvbEWVz5XcnwBSB10tQq54jjb6OzqoB1zHgVx8eFItouoxZym2nQ5Huz6154cZVZ8aDa8///wzfvjhBzUXWvJQ4748MT3RC7IaLmGomlfTquf09TSytMBwmdflTrIcwLTevuz5uFe78B4syFbLhiaI+Qj0esKwXl42FozRVgyarKcc/+Jiz2naeMSoy93koXnTemK6zfyLUx7WNq1jtb32D/tbx3RbDw/RFxu2rd2ua34ykuWx0JZ3uC7XJuf1KiJxPO42bkNMXvdR8Nz/p9Feu574X12u79scXJ+o5hXtesb7anF7VtcLmuX2DPtlMK6TeA2d/gprrVpdtdfrR3hW/u3xmlTLNIbXo5xWPaMvNqzvfo2b1pWT63VtZFpPrIMTxi9mdbnztpzU+8vrPWXxvnPdB8Nlw+Th44hemGhcz3L/fJPlAO7b0KcvFtyjLrXm+gyRk/k+acZCPk3le6tWi7zquHgMI5sj1dXKKsSFIw6nUPStmr/cAQdKcdBURpBbJEJUFQPbuo1fobxRO/SvFS1U36GoxDuQJ0U3Bk6Wq0B7GaIjRXY/flabc/m2DGVoiW4WLdFVF4VFzpbe2YfFD4tAojCye2PkrvBdKqDp0loLuItqpNwhOLK8YN7Uf3hOEx5CW3V5hV0zPYjtyfID0zp33aYuq6x1WLu3Nv0wo+pUo+G1Xr16aNSoEc6eNX3ohMCk1ET90OBzn4uPfCA/U82ryVX/Kr8kRcDFlhnuyzPzRdg1hU1XHavndtq4auPmYlRXtUxcH+JWPdeteP1r4bvj8PKjww3Tezji6I1fewQ/Q02px7rD8YEx+Gj1mLHIed1znZenvIxCtYokA9yAlrLTkXOd6ciB8TZ349Mp+mX/yBbfMk2uQIwMZR12uLap3e6aP7mvXybmD5v2r6L1r/I2ftMbyJ7u3sbKPLS42TNMeu3/6yfQTVzPR3ce//JextvO7ahpzeFIJP/GOnD6pfb/9ErP7b1sWR+bghbRgUPRFTKQdd6hXl8z8HlpAoa5Qpb79Thji3gHRF+Be+Vr3bW+8z0gA+dE9MLnmKGWa9sSSyZ6BESL9f4di2G+OkoFIt9PqhbduT/6pOpW543GNWrZkgNivtS4f2KqYI2tq1RAm5ZAvkP96SeCa5cv1fryM6T1MO/wPaAFLkc5vtpYxZq6Hbux6EBjd5mAs07yQK6p5jUC8caAK2jBt6rWHMG3qC0tVGcxYclulBnKBPT611P4bI1nwItr2kD9pRSUo3p6U1gpxshp3jXIvjx8V08kHdhiqkc2k4G4ZeCAW8P2fvRbjJn6a8O0GPsjr8MfKhMmZXC9NQZb5hi3J6ZZf8NetYoeXP+EnvgMfzHeZsJwzBpU4U9aD+sKjgO15ocZVacaDa+tWurF9ScKjXHp/Lo3pT0ixBfja8Zex08sEUEgAu1T3C0z9zaPEV+ge7D+vHbAWoa8w+I/GRj1BUIiGjuAI7v9h8GYprFA2W7s8Xty/yFIFE/RkZXGQCXC6gZxpZZdfAS2WPQeBKwMcWesmK4dEFG2CSvf3a2WCGveE8E4Eq3EZRoRELuZ918E0JUyZFeTPbvlAxgrArs+H7QWsSJ65CEvqPrVK9GkEfBtgb9QlIBesasNdZsirP5bRLLWXQytr0YiaN4OvGau8xzTD+0jxA+tV41hUGzrVRHYItqjn/MH3HPD0Mu83hOD9GBZYSII35igdZiqvk6UIrg7W0ldU8WPdmgieiFWBFfXvokgvVrcz4TOptbXhCgR+Y7jSKDnVAaxKTe7J4u6zNkLV6JbxlEkjxWXj22OHNnCZ2yN23FMKyO4boDxunr4sZJ0q+H2xGRVF+u2HydPA+Exnv24z5uCw+g/bSUWiTgj930kZM2wMTgWY7t4PhzdW3u0OGuBUf19XnXpIMJ24NbU4AJudWuDIcbWTW36O+43/Sjy9AFy5K+9qOYVbn1tGyu+qUr2YIO/0B+XgraRJdiy2BhoP8CyrSVolCQuU0sqJb9Y/LwMRxN5MJQuKDUWXpvHxaFZs2Y4cOAAfvzxR7X0fLsH/dpFAEXfmFpx5uKbIvEdFut+xb91VARu7dCl8dBszTtRaA5ieThVJrLRzYtx9wgV4iwUHj8hPu1749c+DlNrBnRBC5Tg1BE173TkBEp9BTZHLE595Nl6W/06oH1SJHDyG9Pt7EbhSfG0qB3TAm7QAbGStMeiErTrJWJAVcoOPIgg+b4piObJ24jBFVaBLSIGJ963aK1MlKG6EN+Yf5TNk491BGLVvj7bWbwXqu3HWwJixduu9ESg9s+KyMcSV8uqc6rkaB/ix+wSU6jOl+URsvVazQdLC6Wujkdy8u585OyMtX2sAx/KdVaU4joZYj3WKcbIDNUi6QqlzbB9hfw1ayRbCE23KdaRYdZ3gF2HI+LzrtaQtaXi/v2qaJ3Yf9URa4qx85p8XMXykpYY6Xosbka3PeKxVZefP/oPirJtBwKUC8iA692aHHr7sMzYAqpNv8UbAVqU98tajkrYe0J8YstW26nTcataZta2U3s0Ep825kGI9OvGmobGqiDtqAJdiGokvMrRBeQoA3KYrJOnAhe617jWw0wtNqrOzuiJQeLLUB2ada1XyZadoA3BbaYaSc8xRSV1GH9lHiK6Tnava64p1Q7jy0P4MkA5t2cVpORhceflavJ72P0ECv225lYjc92smAZYNzxVG6/63yqWIOhlB+7tWdXshoZFQBW0Iwp+xDT3XxdaFYVHPcdYrRtU5yNDnerDd6lhl5wjAuzYrY0kIIPq2kGGQ+OqRdIdTHcjt6l4NZaU+Q9tOw6IoOevY5deplIryJIJ7VD6SvT/SJaXncWE2StVWUUHQ0urvtwY0kd+a6oTPg9SByUhqWQ3/qLtuy/ix0ofGXCNHc5qEzmOq2frrM/xYQP5YrIIx09jS4mxxdeqpdeiRfjWNuqyKtBKe+hCFPLwKoNrhw4dqnV812onx3v0arURk9dQOoa6VjEtOSA7ZYUowGqde+5AI2ONp5i0OlMrrhpTMb2+CaUy6Hl1inLXq8pJD1LmAFviXRerTePwaU2FVF/MdbPOKSQlC3rHtAFNNuEfxtuSj61aozL2zHZvSz6XssXcO8Dqh3Evjwt9DaJ2RMGPUAbMUAbjGqEdkmyKFlX6AdIA8U2AsrxCz/FC1UgCjujL1AJrnh2Zqqa8cL/66zzSOqYdxnbTofTZa0SYFz8bzTW/Hnx0aqs5+igIiOyApwwtwvpYtHorsfZjRBs5QpY9pLjXEZM2rq3Wsu7Zylyj4h7CrKnDEbP1aY/W2b9srUrp1R68Mcu9rWX5keg5zhxgrVqE5VQdY9KW42R1HuShWiGk4VWeqCDpqqtw7NixWhpc9fKAyhwOlCalyo4f7kOr1UrVSG431ngGy1nn6VEb623P7PdwBJFo3EIt0A5tG+ZrDb08IND90UojvMobVMlBQHq9r5uqJd4QupKIwndf1jqzNWpqLvfQD+NWtJesVr/to4XVJ1+lBmPkY12KE+oHi3bYPCIWnqVjz8jO0gHp+2WUrw1SYCzLqd18lBdVsqOTFjhNraXeIVUPtf6p4Fv0nZr3Re+d73O9ASlo16gaOp5VG4uQqgVT/1KDaYUOKe/WYG3SSjvkSQpUa7JXC7o+LZL149qYwMF3DKt2zWLRSATJNSE84cCKhYvFz/NIRDfT57XyAPFpExeCwJ7Spx3CfY3aQrYWsvDqPMNWUWEh9u0/j7/otdo9i84WyqT3ZceUXhhmNTRWIM91EV/m7i94Fy0QeHb4sqafX9z3eZg9g5j3qUh98VUjamKucRWhd7v4nG3R12o4rspSwdNnh6/g7PloE0odvdHbXyvXmh1aGE8e5Gxxlq2n44Fc0xOkQrqro5dWnpEqvl+8Wxc8gqUaMaBSZQNWEvujlfhGPn3c+wfKnJ35AXrJRqDXg4bRAMbMxwM9I1C6ZUlQZ5lymbcee0pN25Idqh7shQhDjetb6/aIxywBA13DSz2DVXkDxZetsR1a/Rg0dBrTzlgVW2jq3T8X678S17PqwW9BD86GzmOhJj4PHjAMo3Xvggf0zmrmGmNkQD5NFfqRodU6GscxPSseR1lG0NOjJlUfI9R/TaSz3MD/IWpnR6bD+NDHesF8wcszca0Wn1WvhvqE8c6OacNaqjFdJdUxzWv0BQPxuD7VHZ7j4BrIM3vJ/c+sRSdjqIia3X/PIOn3tLKVcU1nXCm+d4qOqfkv3seWkkj0HFDVobHMUtC/bXiVh7Kj2ilkp4dtc+WVWgctK/JEBV/t3auN+1oVQZ0eVtKGufJs5fE4r7nF5ZIcXsvZ49h1SkkPcjgs604hVusbt6cZMB2Zj3dHuPhqtzrFnTmslmZPx9vH78D4vifwD9cQVzJ43SFCqIk8xG44nG4dfGWJgLkcQA29ZW7mKNukbtPH7Wl8ndff4jqu7VWANtyXdzP3kZWGYcE8AqZ+//Z0lff9hOe+eWxL7bdcZnxszWFV2+dv0FsE3VNej5tgsX+ufQtm3z24z5c/8EHTiQq04d3aY0/mHrQfqo9jLHmeq1+Gy2GmllIn2bnJeCpVNQyW8eUqh6YyD0fl8T5R25DLbjxhWNdzW/o+QVsW+2/P17/1e8q8b5LF/hnW07fj//Sw1rfl5H4fa+vFrsYSDDPUvft+nzvfw98uS8WD5jewc8grNavzcZpQ2UnJY+QA03pW27I4lajrNKNGFuu5BXMaTfVabATst7qfFRDc6WFlBzbPs1iVbVunamAl78t9Pq6Kdhpc8dItr/TpQkWAtjztruLvMdaeW/jdP0kbEkyOrGCxnarvf/CnhzWH1dNbn8aEE7djXp8T+IvHEFeSGubK+FyUfOZazzr4lmDLHHMnMVlnO9y7c1b+YoxZ+IGaMfF7eljBBqfXpsoLWXitCUGHV6rT9OBuCq924OvD1xlefQUqqlFasIjeFiCQ1U7B7bufH1IVFFx4rX52fo4ku+9/SPgNr8H8KCM7q7GhsoioguY8iBlbgO6P+yorodpgzoPPYxu6Y+KrY9USmxBf/kMTyrFtjv9ANO7V6gmu54sMzHYOfnbf//Nh3KtDceXpbfgbg+sFi+GVqBZbNzUdmfkJGPr+9ODrKqmGrcOfb8/E/oSh9qmplOUOQxKwf5n/Q6qyxW9g4fPVG1wbiaCv1frrUygfM62lN2Y1Bto4uNp5/6uXs4+ImsTr14oW9hPykcnH7ILGsgE6b/RTuaoZP3zXhQbHtmUDvrBsgIiI6jCGVyIiIiKyDZYNEBEREZFtMLwSERERkW0wvBIRERGRbTC8EhEREZFtMLwSERERkW2EbLSBevXqoVNyMho0aKCW6PLz83G0wNcJqiuGow0QERER1S01OlRWk8aN0aFDB+zevRsnT51SSyuP4ZWIiIiobqnRsoGS06dx8uRJXHbZZWoJEREREVHwajS8ytDqiIjAd999p5YQEREREQWvxsJrw4YNkZycjKLCwmopGSAiIiKiuiekNa8XXXQR2rVtiyZNmuDH//4XOTk5OHPmjLq06ljzSkRERFS31FiHLWeQlWUD1RViGV6JiIiI6pYaKxv4+eefsXvPHq1sIK5ZM7WUiIiIiCh45+UkBfXr19daYomIiIiIKqJGE6QMrDK4/vDDD1pLLBERERFRRdRoeE1o3VqreS04dkwtISIiIiIKXsg6bLW58ko0M9W2yhMUfLV3b7W1urLDFhEREVHdUqOnh61uDK9EREREdQt7TRERERGRbTC8EhEREZFtMLwSERERkW0wvBIRERGRbTC8EhEREZFtMLwSERERkW0wvBIRERGRbTC8EhEREZFtMLwSERERkW0wvBIRERGRbTC8EhEREZFtMLwSERERkW0wvBIRERGRbTC8EhEREZFtMLwSERERkW0wvBIRERGRbTC8EhEREZFtMLwSERERkW0wvBIRERGRbTC8EhEREZFtMLwSERERkW0wvBIRERGRbTC8EhEREZFtMLwSERERkW0wvBIRERGRbTC8EhEREZFtMLwSERERkW0wvBIRERGRbTC8EhEREZFtMLwSERERkW0wvBIRERGRbTC8EhEREZFtMLwSERERkW0wvBIRERGRbTC8EhEREZFNAP8frHaTBg6S75AAAAAASUVORK5CYII=;" parent="1" vertex="1">
                    <mxGeometry x="-400" y="70" width="687" height="167" as="geometry"/>
                </mxCell>
            </root>
        </mxGraphModel>
    </diagram>
</mxfile>